Format : AVI
Format/Info : Audio Video Interleave
File size : 700 MiB
Duration : 2h 18mn
Overall bit rate : 708 Kbps
Writing application : VirtualDubMod 1.5.4.1 (build 2178/release)
Writing library : VirtualDubMod build 2178/release

Video
ID : 0
Format : MPEG-4 Visual
Format settings, BVOP : Yes
Format settings, QPel : No
Format settings, GMC : No warppoints
Format settings, Matrix : Default (H.263)
Muxing mode : Packed bitstream
Codec ID : DX50
Codec ID/Hint : DivX 5
Duration : 2h 18mn
Bit rate : 573 Kbps
Width : 720 pixels
Height : 304 pixels
Display aspect ratio : 2.35:1
Frame rate : 25.000 fps
Resolution : 24 bits
Colorimetry : 4:2:0
Scan type : Progressive
Bits/(Pixel*Frame) : 0.105
Stream size : 567 MiB (81%)
Writing library : DivX 6.8.4

Audio
ID : 1
Format : MPEG Audio
Format version : Version 1
Format profile : Layer 3
Codec ID : 55
Codec ID/Hint : MP3
Duration : 2h 18mn
Bit rate mode : Constant
Bit rate : 128 Kbps
Channel(s) : 2 channels
Sampling rate : 48.0 KHz
Resolution : 16 bits
Stream size : 127 MiB (18%)
Alignment : Aligned on interleaves
Interleave, duration : 80 ms (2.00 video frames)
Interleave, preload duration : 504 ms
Writing library : LAME3.98r
Encoding settings : -m j -V 4 -q 2 -lowpass 17 -b 128
Language : English

Starring
Tom Cruise
Kyra Sedgwick
Raymond J. Barry
Caroline Kava
Jerry Levine
Frank Whaley
Willem Dafoe

The film begins at Ron Kovic‘s childhood during a summer in Massapequa, New York. He attends a Fourth of July parade, plays and wins at a local neighborhood baseball game, and watches President John F. Kennedy‘s "Ask not what your country can do for you, but what you can do for your country" speech, which later inspires him to enlist in the Marines. The filmed scenes of his past imply that his childhood is innocent and carefree; however, that changes once he becomes a teenager. Now a star athlete, with the same patriotic views, he makes a decision that will forever change his life.

After Ron Kovic and his classmates hear an impassioned lecture about the Corps, Ron decides to enlist. He misses his prom because he is unable to secure a date with his love interest, Donna. He confronts her at the prom and has a dance with her on his last night before leaving.
 
http://www.imdb.com/title/tt0096969/

screens
 
http://img695.imageshack.us/img695/6341/born4julydivxavisnapsho.jpg 
http://img200.imageshack.us/img200/6341/born4julydivxavisnapsho.jpg 
http://img818.imageshack.us/img818/6341/born4julydivxavisnapsho.jpg 
http://img26.imageshack.us/img26/6341/born4julydivxavisnapsho.jpg